<svg version="1.1" xmlns="http://www.w3.org/2000/svg" xmlns:xlink="http://www.w3.org/1999/xlink" x="0px" y="0px"
	 viewBox="0 0 759.7 304" style="enable-background:new 0 0 759.7 304;" xml:space="preserve">
	
	<path d="M722.2,23.6V4h-7V0h18.7v4h-7v19.6H722.2z"/>
	<path d="M736.9,23.6V0h7.1l4.3,16.1L752.5,0h7.1v23.6h-4.4V5l-4.7,18.6H746L741.3,5v18.6H736.9z"/>
	
	<path d="M197.2,82.1v22.4c0,24-9.1,39.5-27.2,46.3c19.7,6.6,29.5,22.5,29.5,47.8v23.9c0,19-5.2,33.5-15.7,43.5
			c-10.5,10-25.9,15-46.3,15H63V23.6h72.2c20.4,0,35.9,5,46.3,15C192,48.6,197.2,63.1,197.2,82.1z M131.1,54.4H98.5v81.2h32.5
			c20.7,0,31-9.9,31-29.6V83.6C162.1,64.1,151.7,54.4,131.1,54.4z M164.3,221v-24.3c0-19.5-10.3-29.2-31-29.2H98.5v82.7h34.8
			C154,250.2,164.3,240.5,164.3,221z"/>
	<path d="M350.7,23.6h35.9V281h-35.9V23.6z"/>
	<path d="M580.4,23.6h116.8v31.5H616v80.1h70.7v31.5H616v83.1h81.3V281H580.4V23.6z"/>
	<path d="M525.2,23.6h37.1L508.6,281h-49.9L404.6,23.6h36.3c18.7,93.4,30.2,152.8,34.6,178.2c4.4,25.4,7.1,40.8,8.1,46.1
			c2.3-10.4,5.4-27.9,9.5-52.6c4-24.7,6.8-41.2,8.3-49.5L525.2,23.6z"/>
	<path d="M291.9,176.2c21.4-8.1,32.1-26.2,32.1-54.3v-41c0-18-5.4-32-16.1-42.1c-10.7-10.1-26.2-15.2-46.3-15.2h-61l27.7,77V54.8
			h30.2c19.9,0,29.9,9.5,29.9,28.5v38.3c0,9.9-2.3,17.2-7,22c-4.7,4.8-12.3,7.2-22.9,7.2l-12.2,0l47,130.2h39.3L291.9,176.2z"/>
</svg>
